<mxfile host="app.diagrams.net" modified="2024-02-07T08:21:26.395Z" agent="Mozilla/5.0 (Windows NT 10.0; Win64; x64) AppleWebKit/537.36 (KHTML, like Gecko) Chrome/120.0.0.0 YaBrowser/24.1.0.0 Safari/537.36" etag="qzEyfzJeq6ciMQ7L6Usl" version="23.1.1" type="github">
  <diagram name="Page-1" id="0783ab3e-0a74-02c8-0abd-f7b4e66b4bec">
    <mxGraphModel dx="3457" dy="2538" grid="1" gridSize="10" guides="1" tooltips="1" connect="1" arrows="1" fold="1" page="1" pageScale="1" pageWidth="850" pageHeight="1100" background="none" math="0" shadow="0">
      <root>
        <mxCell id="0" />
        <mxCell id="1" parent="0" />
        <mxCell id="1c1d494c118603dd-1" value="Регистрация пользователя" style="swimlane;html=1;childLayout=stackLayout;startSize=20;rounded=0;shadow=0;comic=0;labelBackgroundColor=none;strokeWidth=1;fontFamily=Verdana;fontSize=12;align=center;" parent="1" vertex="1">
          <mxGeometry x="40" y="20" width="720" height="1490" as="geometry" />
        </mxCell>
        <mxCell id="1c1d494c118603dd-2" value="Клиент" style="swimlane;html=1;startSize=20;" parent="1c1d494c118603dd-1" vertex="1">
          <mxGeometry y="20" width="250" height="1470" as="geometry" />
        </mxCell>
        <mxCell id="60571a20871a0731-4" value="" style="ellipse;whiteSpace=wrap;html=1;rounded=0;shadow=0;comic=0;labelBackgroundColor=none;strokeWidth=1;fillColor=#000000;fontFamily=Verdana;fontSize=12;align=center;" parent="1c1d494c118603dd-2" vertex="1">
          <mxGeometry x="40" y="65" width="40" height="40" as="geometry" />
        </mxCell>
        <mxCell id="yV7aqRX8QzyMvrt_NgPq-1" value="&lt;font style=&quot;font-size: 10px;&quot;&gt;Отправка запроса на регистрацию&lt;/font&gt;" style="rounded=1;whiteSpace=wrap;html=1;shadow=0;comic=0;labelBackgroundColor=none;strokeWidth=1;fontFamily=Verdana;fontSize=12;align=center;arcSize=50;" vertex="1" parent="1c1d494c118603dd-2">
          <mxGeometry x="100" y="60" width="120" height="50" as="geometry" />
        </mxCell>
        <mxCell id="1c1d494c118603dd-27" style="edgeStyle=orthogonalEdgeStyle;rounded=0;html=1;labelBackgroundColor=none;startArrow=none;startFill=0;startSize=5;endArrow=classicThin;endFill=1;endSize=5;jettySize=auto;orthogonalLoop=1;strokeWidth=1;fontFamily=Verdana;fontSize=12;entryX=0;entryY=0.5;entryDx=0;entryDy=0;" parent="1c1d494c118603dd-2" source="60571a20871a0731-4" target="yV7aqRX8QzyMvrt_NgPq-1" edge="1">
          <mxGeometry relative="1" as="geometry" />
        </mxCell>
        <mxCell id="yV7aqRX8QzyMvrt_NgPq-34" value="" style="shape=mxgraph.bpmn.shape;html=1;verticalLabelPosition=bottom;labelBackgroundColor=#ffffff;verticalAlign=top;perimeter=ellipsePerimeter;outline=end;symbol=terminate;rounded=0;shadow=0;comic=0;strokeWidth=1;fontFamily=Verdana;fontSize=12;align=center;" vertex="1" parent="1c1d494c118603dd-2">
          <mxGeometry x="90" y="1400" width="40" height="40" as="geometry" />
        </mxCell>
        <mxCell id="yV7aqRX8QzyMvrt_NgPq-2" value="" style="endArrow=classic;html=1;rounded=0;exitX=1;exitY=0.5;exitDx=0;exitDy=0;entryX=0.5;entryY=0;entryDx=0;entryDy=0;edgeStyle=orthogonalEdgeStyle;" edge="1" parent="1c1d494c118603dd-1" source="yV7aqRX8QzyMvrt_NgPq-1" target="60571a20871a0731-8">
          <mxGeometry width="50" height="50" relative="1" as="geometry">
            <mxPoint x="300" y="-30" as="sourcePoint" />
            <mxPoint x="350" y="-80" as="targetPoint" />
          </mxGeometry>
        </mxCell>
        <mxCell id="1c1d494c118603dd-39" style="edgeStyle=orthogonalEdgeStyle;rounded=0;html=1;labelBackgroundColor=none;startArrow=none;startFill=0;startSize=5;endArrow=classicThin;endFill=1;endSize=5;jettySize=auto;orthogonalLoop=1;strokeWidth=1;fontFamily=Verdana;fontSize=12;exitX=0;exitY=0.5;exitDx=0;exitDy=0;entryX=0.5;entryY=0;entryDx=0;entryDy=0;" parent="1c1d494c118603dd-1" source="yV7aqRX8QzyMvrt_NgPq-4" target="yV7aqRX8QzyMvrt_NgPq-34" edge="1">
          <mxGeometry relative="1" as="geometry">
            <mxPoint x="363.54999999999995" y="440" as="sourcePoint" />
            <mxPoint x="363.8499999999999" y="470" as="targetPoint" />
          </mxGeometry>
        </mxCell>
        <mxCell id="yV7aqRX8QzyMvrt_NgPq-20" style="edgeStyle=orthogonalEdgeStyle;rounded=0;html=1;labelBackgroundColor=none;startArrow=none;startFill=0;startSize=5;endArrow=classicThin;endFill=1;endSize=5;jettySize=auto;orthogonalLoop=1;strokeWidth=1;fontFamily=Verdana;fontSize=12;exitX=0.5;exitY=1;exitDx=0;exitDy=0;jumpStyle=arc;entryX=0.5;entryY=0;entryDx=0;entryDy=0;" edge="1" parent="1c1d494c118603dd-1" source="yV7aqRX8QzyMvrt_NgPq-42" target="yV7aqRX8QzyMvrt_NgPq-34">
          <mxGeometry relative="1" as="geometry">
            <mxPoint x="110" y="670" as="targetPoint" />
            <Array as="points">
              <mxPoint x="656" y="670" />
              <mxPoint x="110" y="670" />
            </Array>
          </mxGeometry>
        </mxCell>
        <mxCell id="1c1d494c118603dd-3" value="Сервер" style="swimlane;html=1;startSize=20;" parent="1c1d494c118603dd-1" vertex="1">
          <mxGeometry x="250" y="20" width="470" height="1470" as="geometry" />
        </mxCell>
        <mxCell id="60571a20871a0731-8" value="&lt;font style=&quot;font-size: 10px;&quot;&gt;Поиск компании по ID в таблице Departments&lt;/font&gt;" style="rounded=1;whiteSpace=wrap;html=1;shadow=0;comic=0;labelBackgroundColor=none;strokeWidth=1;fontFamily=Verdana;fontSize=12;align=center;arcSize=50;" parent="1c1d494c118603dd-3" vertex="1">
          <mxGeometry x="163.75" y="110" width="142.5" height="50" as="geometry" />
        </mxCell>
        <mxCell id="yV7aqRX8QzyMvrt_NgPq-37" style="edgeStyle=orthogonalEdgeStyle;rounded=0;orthogonalLoop=1;jettySize=auto;html=1;exitX=1;exitY=0.5;exitDx=0;exitDy=0;entryX=0.5;entryY=0;entryDx=0;entryDy=0;" edge="1" parent="1c1d494c118603dd-3" source="yV7aqRX8QzyMvrt_NgPq-3" target="yV7aqRX8QzyMvrt_NgPq-35">
          <mxGeometry relative="1" as="geometry" />
        </mxCell>
        <mxCell id="yV7aqRX8QzyMvrt_NgPq-38" value="Да" style="edgeLabel;html=1;align=center;verticalAlign=middle;resizable=0;points=[];" vertex="1" connectable="0" parent="yV7aqRX8QzyMvrt_NgPq-37">
          <mxGeometry x="-0.6148" y="1" relative="1" as="geometry">
            <mxPoint as="offset" />
          </mxGeometry>
        </mxCell>
        <mxCell id="yV7aqRX8QzyMvrt_NgPq-3" value="&lt;font style=&quot;font-size: 10px;&quot;&gt;Компания найдена?&lt;/font&gt;" style="rhombus;whiteSpace=wrap;html=1;" vertex="1" parent="1c1d494c118603dd-3">
          <mxGeometry x="195" y="190" width="80" height="80" as="geometry" />
        </mxCell>
        <mxCell id="yV7aqRX8QzyMvrt_NgPq-4" value="&lt;font style=&quot;font-size: 10px;&quot;&gt;Возвращает ответ 404 Не найдено&lt;/font&gt;" style="rounded=1;whiteSpace=wrap;html=1;shadow=0;comic=0;labelBackgroundColor=none;strokeWidth=1;fontFamily=Verdana;fontSize=12;align=center;arcSize=50;" vertex="1" parent="1c1d494c118603dd-3">
          <mxGeometry x="40" y="270" width="112.5" height="50" as="geometry" />
        </mxCell>
        <mxCell id="yV7aqRX8QzyMvrt_NgPq-6" value="" style="endArrow=classic;html=1;rounded=0;exitX=0.5;exitY=1;exitDx=0;exitDy=0;entryX=0.5;entryY=0;entryDx=0;entryDy=0;" edge="1" parent="1c1d494c118603dd-3" source="60571a20871a0731-8" target="yV7aqRX8QzyMvrt_NgPq-3">
          <mxGeometry width="50" height="50" relative="1" as="geometry">
            <mxPoint x="330" y="230" as="sourcePoint" />
            <mxPoint x="380" y="180" as="targetPoint" />
          </mxGeometry>
        </mxCell>
        <mxCell id="yV7aqRX8QzyMvrt_NgPq-7" value="" style="endArrow=classic;html=1;rounded=0;exitX=0;exitY=0.5;exitDx=0;exitDy=0;entryX=0.5;entryY=0;entryDx=0;entryDy=0;edgeStyle=orthogonalEdgeStyle;" edge="1" parent="1c1d494c118603dd-3" source="yV7aqRX8QzyMvrt_NgPq-3" target="yV7aqRX8QzyMvrt_NgPq-4">
          <mxGeometry width="50" height="50" relative="1" as="geometry">
            <mxPoint x="110" y="290" as="sourcePoint" />
            <mxPoint x="160" y="240" as="targetPoint" />
          </mxGeometry>
        </mxCell>
        <mxCell id="yV7aqRX8QzyMvrt_NgPq-36" value="Нет" style="edgeLabel;html=1;align=center;verticalAlign=middle;resizable=0;points=[];" vertex="1" connectable="0" parent="yV7aqRX8QzyMvrt_NgPq-7">
          <mxGeometry x="-0.4171" y="-1" relative="1" as="geometry">
            <mxPoint as="offset" />
          </mxGeometry>
        </mxCell>
        <mxCell id="yV7aqRX8QzyMvrt_NgPq-35" value="&lt;font style=&quot;font-size: 10px;&quot;&gt;Поиск пользователя по электронной почте в таблице AspNetUsers&lt;/font&gt;" style="rounded=1;whiteSpace=wrap;html=1;shadow=0;comic=0;labelBackgroundColor=none;strokeWidth=1;fontFamily=Verdana;fontSize=12;align=center;arcSize=50;" vertex="1" parent="1c1d494c118603dd-3">
          <mxGeometry x="250" y="270" width="152.5" height="50" as="geometry" />
        </mxCell>
        <mxCell id="yV7aqRX8QzyMvrt_NgPq-40" value="&lt;p style=&quot;line-height: 110%;&quot;&gt;&lt;font style=&quot;font-size: 10px;&quot;&gt;Пользователь с такой же почтой найден?&lt;/font&gt;&lt;/p&gt;" style="rhombus;whiteSpace=wrap;html=1;align=center;" vertex="1" parent="1c1d494c118603dd-3">
          <mxGeometry x="268.13" y="360" width="116.25" height="120" as="geometry" />
        </mxCell>
        <mxCell id="yV7aqRX8QzyMvrt_NgPq-41" value="" style="endArrow=classic;html=1;rounded=0;exitX=0.5;exitY=1;exitDx=0;exitDy=0;entryX=0.5;entryY=0;entryDx=0;entryDy=0;" edge="1" parent="1c1d494c118603dd-3" source="yV7aqRX8QzyMvrt_NgPq-35" target="yV7aqRX8QzyMvrt_NgPq-40">
          <mxGeometry width="50" height="50" relative="1" as="geometry">
            <mxPoint x="190" y="440" as="sourcePoint" />
            <mxPoint x="240" y="390" as="targetPoint" />
          </mxGeometry>
        </mxCell>
        <mxCell id="yV7aqRX8QzyMvrt_NgPq-42" value="&lt;font style=&quot;font-size: 10px;&quot;&gt;Возвращает ответ 400&lt;/font&gt;" style="rounded=1;whiteSpace=wrap;html=1;shadow=0;comic=0;labelBackgroundColor=none;strokeWidth=1;fontFamily=Verdana;fontSize=12;align=center;arcSize=50;" vertex="1" parent="1c1d494c118603dd-3">
          <mxGeometry x="350" y="530" width="112.5" height="50" as="geometry" />
        </mxCell>
        <mxCell id="yV7aqRX8QzyMvrt_NgPq-43" value="" style="endArrow=classic;html=1;rounded=0;exitX=1;exitY=0.5;exitDx=0;exitDy=0;entryX=0.5;entryY=0;entryDx=0;entryDy=0;edgeStyle=orthogonalEdgeStyle;" edge="1" parent="1c1d494c118603dd-3" source="yV7aqRX8QzyMvrt_NgPq-40" target="yV7aqRX8QzyMvrt_NgPq-42">
          <mxGeometry width="50" height="50" relative="1" as="geometry">
            <mxPoint x="180" y="590" as="sourcePoint" />
            <mxPoint x="230" y="540" as="targetPoint" />
          </mxGeometry>
        </mxCell>
        <mxCell id="yV7aqRX8QzyMvrt_NgPq-47" value="Да" style="edgeLabel;html=1;align=center;verticalAlign=middle;resizable=0;points=[];" vertex="1" connectable="0" parent="yV7aqRX8QzyMvrt_NgPq-43">
          <mxGeometry x="-0.7792" y="-2" relative="1" as="geometry">
            <mxPoint as="offset" />
          </mxGeometry>
        </mxCell>
        <mxCell id="yV7aqRX8QzyMvrt_NgPq-44" value="&lt;font style=&quot;font-size: 10px;&quot;&gt;Создаёт пользователя в таблице AspNetUsers&lt;/font&gt;" style="rounded=1;whiteSpace=wrap;html=1;shadow=0;comic=0;labelBackgroundColor=none;strokeWidth=1;fontFamily=Verdana;fontSize=12;align=center;arcSize=50;" vertex="1" parent="1c1d494c118603dd-3">
          <mxGeometry x="110" y="485" width="137.5" height="50" as="geometry" />
        </mxCell>
        <mxCell id="yV7aqRX8QzyMvrt_NgPq-45" value="" style="endArrow=classic;html=1;rounded=0;exitX=0;exitY=0.5;exitDx=0;exitDy=0;entryX=0.5;entryY=0;entryDx=0;entryDy=0;edgeStyle=orthogonalEdgeStyle;" edge="1" parent="1c1d494c118603dd-3" source="yV7aqRX8QzyMvrt_NgPq-40" target="yV7aqRX8QzyMvrt_NgPq-44">
          <mxGeometry width="50" height="50" relative="1" as="geometry">
            <mxPoint x="394" y="430" as="sourcePoint" />
            <mxPoint x="416" y="540" as="targetPoint" />
          </mxGeometry>
        </mxCell>
        <mxCell id="yV7aqRX8QzyMvrt_NgPq-46" value="Нет" style="edgeLabel;html=1;align=center;verticalAlign=middle;resizable=0;points=[];" vertex="1" connectable="0" parent="yV7aqRX8QzyMvrt_NgPq-45">
          <mxGeometry x="-0.4755" y="-3" relative="1" as="geometry">
            <mxPoint as="offset" />
          </mxGeometry>
        </mxCell>
        <mxCell id="yV7aqRX8QzyMvrt_NgPq-66" value="&lt;font style=&quot;font-size: 10px;&quot;&gt;&lt;font style=&quot;font-size: 10px;&quot;&gt;Создаёт RefreshToken и сохраняет его в таблице&amp;nbsp;&lt;/font&gt;RefreshTokens&lt;/font&gt;" style="rounded=1;whiteSpace=wrap;html=1;shadow=0;comic=0;labelBackgroundColor=none;strokeWidth=1;fontFamily=Verdana;fontSize=12;align=center;arcSize=50;" vertex="1" parent="1c1d494c118603dd-3">
          <mxGeometry x="110" y="570" width="137.5" height="50" as="geometry" />
        </mxCell>
        <mxCell id="yV7aqRX8QzyMvrt_NgPq-67" value="" style="endArrow=classic;html=1;rounded=0;exitX=0.5;exitY=1;exitDx=0;exitDy=0;entryX=0.5;entryY=0;entryDx=0;entryDy=0;" edge="1" parent="1c1d494c118603dd-3" source="yV7aqRX8QzyMvrt_NgPq-44" target="yV7aqRX8QzyMvrt_NgPq-66">
          <mxGeometry width="50" height="50" relative="1" as="geometry">
            <mxPoint x="100" y="720" as="sourcePoint" />
            <mxPoint x="150" y="670" as="targetPoint" />
          </mxGeometry>
        </mxCell>
        <mxCell id="yV7aqRX8QzyMvrt_NgPq-68" value="&lt;p style=&quot;line-height: 110%;&quot;&gt;&lt;font style=&quot;font-size: 10px;&quot;&gt;Какую роль нужно присвоить пользователю?&lt;/font&gt;&lt;/p&gt;" style="rhombus;whiteSpace=wrap;html=1;align=center;" vertex="1" parent="1c1d494c118603dd-3">
          <mxGeometry x="120.62" y="670" width="116.25" height="120" as="geometry" />
        </mxCell>
        <mxCell id="yV7aqRX8QzyMvrt_NgPq-69" value="" style="endArrow=classic;html=1;rounded=0;exitX=0.5;exitY=1;exitDx=0;exitDy=0;entryX=0.5;entryY=0;entryDx=0;entryDy=0;" edge="1" parent="1c1d494c118603dd-3" source="yV7aqRX8QzyMvrt_NgPq-66" target="yV7aqRX8QzyMvrt_NgPq-68">
          <mxGeometry width="50" height="50" relative="1" as="geometry">
            <mxPoint x="100" y="720" as="sourcePoint" />
            <mxPoint x="150" y="670" as="targetPoint" />
          </mxGeometry>
        </mxCell>
        <mxCell id="yV7aqRX8QzyMvrt_NgPq-70" value="&lt;span style=&quot;font-size: 10px;&quot;&gt;Пользователю присваивается роль Manager&lt;/span&gt;" style="rounded=1;whiteSpace=wrap;html=1;shadow=0;comic=0;labelBackgroundColor=none;strokeWidth=1;fontFamily=Verdana;fontSize=12;align=center;arcSize=50;" vertex="1" parent="1c1d494c118603dd-3">
          <mxGeometry x="236.87" y="800" width="137.5" height="50" as="geometry" />
        </mxCell>
        <mxCell id="yV7aqRX8QzyMvrt_NgPq-71" value="" style="endArrow=classic;html=1;rounded=0;exitX=1;exitY=0.5;exitDx=0;exitDy=0;entryX=0.5;entryY=0;entryDx=0;entryDy=0;edgeStyle=orthogonalEdgeStyle;" edge="1" parent="1c1d494c118603dd-3" source="yV7aqRX8QzyMvrt_NgPq-68" target="yV7aqRX8QzyMvrt_NgPq-70">
          <mxGeometry width="50" height="50" relative="1" as="geometry">
            <mxPoint x="189" y="630" as="sourcePoint" />
            <mxPoint x="189" y="680" as="targetPoint" />
          </mxGeometry>
        </mxCell>
        <mxCell id="yV7aqRX8QzyMvrt_NgPq-72" value="Manager" style="edgeLabel;html=1;align=center;verticalAlign=middle;resizable=0;points=[];" vertex="1" connectable="0" parent="yV7aqRX8QzyMvrt_NgPq-71">
          <mxGeometry x="-0.6895" y="-1" relative="1" as="geometry">
            <mxPoint as="offset" />
          </mxGeometry>
        </mxCell>
        <mxCell id="yV7aqRX8QzyMvrt_NgPq-74" value="&lt;span style=&quot;font-size: 10px;&quot;&gt;В таблице Humans создаётся человек&lt;/span&gt;" style="rounded=1;whiteSpace=wrap;html=1;shadow=0;comic=0;labelBackgroundColor=none;strokeWidth=1;fontFamily=Verdana;fontSize=12;align=center;arcSize=50;" vertex="1" parent="1c1d494c118603dd-3">
          <mxGeometry x="236.87" y="870" width="137.5" height="50" as="geometry" />
        </mxCell>
        <mxCell id="yV7aqRX8QzyMvrt_NgPq-75" value="&lt;span style=&quot;font-size: 10px;&quot;&gt;В таблице Manager создаётся менеджер, при этом он связан с компанией&lt;/span&gt;" style="rounded=1;whiteSpace=wrap;html=1;shadow=0;comic=0;labelBackgroundColor=none;strokeWidth=1;fontFamily=Verdana;fontSize=12;align=center;arcSize=50;" vertex="1" parent="1c1d494c118603dd-3">
          <mxGeometry x="236.87" y="950" width="137.5" height="70" as="geometry" />
        </mxCell>
        <mxCell id="yV7aqRX8QzyMvrt_NgPq-76" value="" style="endArrow=classic;html=1;rounded=0;exitX=0.5;exitY=1;exitDx=0;exitDy=0;entryX=0.5;entryY=0;entryDx=0;entryDy=0;edgeStyle=orthogonalEdgeStyle;" edge="1" parent="1c1d494c118603dd-3" source="yV7aqRX8QzyMvrt_NgPq-70" target="yV7aqRX8QzyMvrt_NgPq-74">
          <mxGeometry width="50" height="50" relative="1" as="geometry">
            <mxPoint x="247" y="740" as="sourcePoint" />
            <mxPoint x="316" y="800" as="targetPoint" />
          </mxGeometry>
        </mxCell>
        <mxCell id="yV7aqRX8QzyMvrt_NgPq-81" value="" style="endArrow=classic;html=1;rounded=0;exitX=0.5;exitY=1;exitDx=0;exitDy=0;entryX=0.5;entryY=0;entryDx=0;entryDy=0;edgeStyle=orthogonalEdgeStyle;" edge="1" parent="1c1d494c118603dd-3" source="yV7aqRX8QzyMvrt_NgPq-74" target="yV7aqRX8QzyMvrt_NgPq-75">
          <mxGeometry width="50" height="50" relative="1" as="geometry">
            <mxPoint x="316" y="850" as="sourcePoint" />
            <mxPoint x="316" y="900" as="targetPoint" />
          </mxGeometry>
        </mxCell>
        <mxCell id="yV7aqRX8QzyMvrt_NgPq-83" value="&lt;span style=&quot;font-size: 10px;&quot;&gt;Пользователю присваивается роль Doctor&lt;/span&gt;" style="rounded=1;whiteSpace=wrap;html=1;shadow=0;comic=0;labelBackgroundColor=none;strokeWidth=1;fontFamily=Verdana;fontSize=12;align=center;arcSize=50;" vertex="1" parent="1c1d494c118603dd-3">
          <mxGeometry x="10" y="800" width="137.5" height="50" as="geometry" />
        </mxCell>
        <mxCell id="yV7aqRX8QzyMvrt_NgPq-84" value="&lt;span style=&quot;font-size: 10px;&quot;&gt;В таблице Humans создаётся человек&lt;/span&gt;" style="rounded=1;whiteSpace=wrap;html=1;shadow=0;comic=0;labelBackgroundColor=none;strokeWidth=1;fontFamily=Verdana;fontSize=12;align=center;arcSize=50;" vertex="1" parent="1c1d494c118603dd-3">
          <mxGeometry x="10" y="870" width="137.5" height="50" as="geometry" />
        </mxCell>
        <mxCell id="yV7aqRX8QzyMvrt_NgPq-85" value="&lt;span style=&quot;font-size: 10px;&quot;&gt;В таблице Doctors создаётся доктор, при этом он связан с компанией&lt;/span&gt;" style="rounded=1;whiteSpace=wrap;html=1;shadow=0;comic=0;labelBackgroundColor=none;strokeWidth=1;fontFamily=Verdana;fontSize=12;align=center;arcSize=50;" vertex="1" parent="1c1d494c118603dd-3">
          <mxGeometry x="10" y="950" width="137.5" height="70" as="geometry" />
        </mxCell>
        <mxCell id="yV7aqRX8QzyMvrt_NgPq-86" value="" style="endArrow=classic;html=1;rounded=0;exitX=0;exitY=0.5;exitDx=0;exitDy=0;entryX=0.5;entryY=0;entryDx=0;entryDy=0;edgeStyle=orthogonalEdgeStyle;" edge="1" parent="1c1d494c118603dd-3" source="yV7aqRX8QzyMvrt_NgPq-68" target="yV7aqRX8QzyMvrt_NgPq-83">
          <mxGeometry width="50" height="50" relative="1" as="geometry">
            <mxPoint x="60" y="740" as="sourcePoint" />
            <mxPoint x="110" y="690" as="targetPoint" />
          </mxGeometry>
        </mxCell>
        <mxCell id="yV7aqRX8QzyMvrt_NgPq-87" value="Doctor или ChiefDoctor" style="edgeLabel;html=1;align=center;verticalAlign=middle;resizable=0;points=[];" vertex="1" connectable="0" parent="yV7aqRX8QzyMvrt_NgPq-86">
          <mxGeometry x="0.1773" y="-2" relative="1" as="geometry">
            <mxPoint as="offset" />
          </mxGeometry>
        </mxCell>
        <mxCell id="yV7aqRX8QzyMvrt_NgPq-88" value="" style="endArrow=classic;html=1;rounded=0;exitX=0.5;exitY=1;exitDx=0;exitDy=0;entryX=0.5;entryY=0;entryDx=0;entryDy=0;" edge="1" parent="1c1d494c118603dd-3" source="yV7aqRX8QzyMvrt_NgPq-83" target="yV7aqRX8QzyMvrt_NgPq-84">
          <mxGeometry width="50" height="50" relative="1" as="geometry">
            <mxPoint x="170" y="890" as="sourcePoint" />
            <mxPoint x="220" y="840" as="targetPoint" />
          </mxGeometry>
        </mxCell>
        <mxCell id="yV7aqRX8QzyMvrt_NgPq-89" value="" style="endArrow=classic;html=1;rounded=0;exitX=0.5;exitY=1;exitDx=0;exitDy=0;entryX=0.5;entryY=0;entryDx=0;entryDy=0;" edge="1" parent="1c1d494c118603dd-3" source="yV7aqRX8QzyMvrt_NgPq-84" target="yV7aqRX8QzyMvrt_NgPq-85">
          <mxGeometry width="50" height="50" relative="1" as="geometry">
            <mxPoint x="89" y="860" as="sourcePoint" />
            <mxPoint x="89" y="880" as="targetPoint" />
          </mxGeometry>
        </mxCell>
        <mxCell id="yV7aqRX8QzyMvrt_NgPq-90" value="&lt;span style=&quot;font-size: 10px;&quot;&gt;Пользователю присваивается роль Administrator&lt;/span&gt;" style="rounded=1;whiteSpace=wrap;html=1;shadow=0;comic=0;labelBackgroundColor=none;strokeWidth=1;fontFamily=Verdana;fontSize=12;align=center;arcSize=50;" vertex="1" parent="1c1d494c118603dd-3">
          <mxGeometry x="112.5" y="1050" width="137.5" height="50" as="geometry" />
        </mxCell>
        <mxCell id="yV7aqRX8QzyMvrt_NgPq-91" value="&lt;span style=&quot;font-size: 10px;&quot;&gt;В таблице Humans создаётся человек&lt;/span&gt;" style="rounded=1;whiteSpace=wrap;html=1;shadow=0;comic=0;labelBackgroundColor=none;strokeWidth=1;fontFamily=Verdana;fontSize=12;align=center;arcSize=50;" vertex="1" parent="1c1d494c118603dd-3">
          <mxGeometry x="112.5" y="1120" width="137.5" height="50" as="geometry" />
        </mxCell>
        <mxCell id="yV7aqRX8QzyMvrt_NgPq-93" value="" style="endArrow=classic;html=1;rounded=0;exitX=0.5;exitY=1;exitDx=0;exitDy=0;entryX=0.5;entryY=0;entryDx=0;entryDy=0;" edge="1" parent="1c1d494c118603dd-3" source="yV7aqRX8QzyMvrt_NgPq-68" target="yV7aqRX8QzyMvrt_NgPq-90">
          <mxGeometry width="50" height="50" relative="1" as="geometry">
            <mxPoint x="190" y="950" as="sourcePoint" />
            <mxPoint x="240" y="900" as="targetPoint" />
          </mxGeometry>
        </mxCell>
        <mxCell id="yV7aqRX8QzyMvrt_NgPq-94" value="" style="endArrow=classic;html=1;rounded=0;exitX=0.5;exitY=1;exitDx=0;exitDy=0;entryX=0.5;entryY=0;entryDx=0;entryDy=0;" edge="1" parent="1c1d494c118603dd-3" source="yV7aqRX8QzyMvrt_NgPq-90" target="yV7aqRX8QzyMvrt_NgPq-91">
          <mxGeometry width="50" height="50" relative="1" as="geometry">
            <mxPoint x="320" y="1160" as="sourcePoint" />
            <mxPoint x="370" y="1110" as="targetPoint" />
          </mxGeometry>
        </mxCell>
        <mxCell id="yV7aqRX8QzyMvrt_NgPq-151" value="&lt;span style=&quot;font-size: 10px;&quot;&gt;Отправка ответа 200&lt;/span&gt;" style="rounded=1;whiteSpace=wrap;html=1;shadow=0;comic=0;labelBackgroundColor=none;strokeWidth=1;fontFamily=Verdana;fontSize=12;align=center;arcSize=50;" vertex="1" parent="1c1d494c118603dd-3">
          <mxGeometry x="112.5" y="1290" width="137.5" height="50" as="geometry" />
        </mxCell>
        <mxCell id="yV7aqRX8QzyMvrt_NgPq-97" value="" style="endArrow=classic;html=1;rounded=0;exitX=0.5;exitY=1;exitDx=0;exitDy=0;entryX=0.5;entryY=0;entryDx=0;entryDy=0;edgeStyle=orthogonalEdgeStyle;" edge="1" parent="1c1d494c118603dd-3" source="yV7aqRX8QzyMvrt_NgPq-75" target="yV7aqRX8QzyMvrt_NgPq-151">
          <mxGeometry width="50" height="50" relative="1" as="geometry">
            <mxPoint x="191" y="1180" as="sourcePoint" />
            <mxPoint x="-130" y="1320" as="targetPoint" />
            <Array as="points">
              <mxPoint x="306" y="1200" />
              <mxPoint x="181" y="1200" />
            </Array>
          </mxGeometry>
        </mxCell>
        <mxCell id="yV7aqRX8QzyMvrt_NgPq-96" value="" style="endArrow=classic;html=1;rounded=0;exitX=0.5;exitY=1;exitDx=0;exitDy=0;entryX=0.5;entryY=0;entryDx=0;entryDy=0;edgeStyle=orthogonalEdgeStyle;" edge="1" parent="1c1d494c118603dd-3" source="yV7aqRX8QzyMvrt_NgPq-91" target="yV7aqRX8QzyMvrt_NgPq-151">
          <mxGeometry width="50" height="50" relative="1" as="geometry">
            <mxPoint x="89" y="1030" as="sourcePoint" />
            <mxPoint x="-130" y="1320" as="targetPoint" />
            <Array as="points">
              <mxPoint x="181" y="1200" />
              <mxPoint x="181" y="1250" />
            </Array>
          </mxGeometry>
        </mxCell>
        <mxCell id="yV7aqRX8QzyMvrt_NgPq-95" value="" style="endArrow=classic;html=1;rounded=0;exitX=0.5;exitY=1;exitDx=0;exitDy=0;entryX=0.5;entryY=0;entryDx=0;entryDy=0;edgeStyle=orthogonalEdgeStyle;" edge="1" parent="1c1d494c118603dd-3" source="yV7aqRX8QzyMvrt_NgPq-85" target="yV7aqRX8QzyMvrt_NgPq-151">
          <mxGeometry width="50" height="50" relative="1" as="geometry">
            <mxPoint x="150" y="1350" as="sourcePoint" />
            <mxPoint x="200" y="1300" as="targetPoint" />
            <Array as="points">
              <mxPoint x="79" y="1040" />
              <mxPoint x="80" y="1040" />
              <mxPoint x="80" y="1200" />
              <mxPoint x="181" y="1200" />
            </Array>
          </mxGeometry>
        </mxCell>
        <mxCell id="yV7aqRX8QzyMvrt_NgPq-152" value="" style="endArrow=classic;html=1;rounded=0;exitX=0.5;exitY=1;exitDx=0;exitDy=0;edgeStyle=orthogonalEdgeStyle;entryX=0.5;entryY=0;entryDx=0;entryDy=0;" edge="1" parent="1c1d494c118603dd-1" source="yV7aqRX8QzyMvrt_NgPq-151" target="yV7aqRX8QzyMvrt_NgPq-34">
          <mxGeometry width="50" height="50" relative="1" as="geometry">
            <mxPoint x="350" y="1460" as="sourcePoint" />
            <mxPoint x="111" y="1410" as="targetPoint" />
          </mxGeometry>
        </mxCell>
        <mxCell id="yV7aqRX8QzyMvrt_NgPq-98" value="Получить JWT токен" style="swimlane;html=1;childLayout=stackLayout;startSize=20;rounded=0;shadow=0;comic=0;labelBackgroundColor=none;strokeWidth=1;fontFamily=Verdana;fontSize=12;align=center;" vertex="1" parent="1">
          <mxGeometry x="-810" y="20" width="720" height="550" as="geometry" />
        </mxCell>
        <mxCell id="yV7aqRX8QzyMvrt_NgPq-99" value="Клиент" style="swimlane;html=1;startSize=20;" vertex="1" parent="yV7aqRX8QzyMvrt_NgPq-98">
          <mxGeometry y="20" width="250" height="530" as="geometry" />
        </mxCell>
        <mxCell id="yV7aqRX8QzyMvrt_NgPq-100" value="" style="ellipse;whiteSpace=wrap;html=1;rounded=0;shadow=0;comic=0;labelBackgroundColor=none;strokeWidth=1;fillColor=#000000;fontFamily=Verdana;fontSize=12;align=center;" vertex="1" parent="yV7aqRX8QzyMvrt_NgPq-99">
          <mxGeometry x="40" y="65" width="40" height="40" as="geometry" />
        </mxCell>
        <mxCell id="yV7aqRX8QzyMvrt_NgPq-101" value="&lt;font style=&quot;font-size: 10px;&quot;&gt;Отправка запроса на авторизацию&lt;/font&gt;" style="rounded=1;whiteSpace=wrap;html=1;shadow=0;comic=0;labelBackgroundColor=none;strokeWidth=1;fontFamily=Verdana;fontSize=12;align=center;arcSize=50;" vertex="1" parent="yV7aqRX8QzyMvrt_NgPq-99">
          <mxGeometry x="100" y="60" width="120" height="50" as="geometry" />
        </mxCell>
        <mxCell id="yV7aqRX8QzyMvrt_NgPq-102" style="edgeStyle=orthogonalEdgeStyle;rounded=0;html=1;labelBackgroundColor=none;startArrow=none;startFill=0;startSize=5;endArrow=classicThin;endFill=1;endSize=5;jettySize=auto;orthogonalLoop=1;strokeWidth=1;fontFamily=Verdana;fontSize=12;entryX=0;entryY=0.5;entryDx=0;entryDy=0;" edge="1" parent="yV7aqRX8QzyMvrt_NgPq-99" source="yV7aqRX8QzyMvrt_NgPq-100" target="yV7aqRX8QzyMvrt_NgPq-101">
          <mxGeometry relative="1" as="geometry" />
        </mxCell>
        <mxCell id="yV7aqRX8QzyMvrt_NgPq-103" value="" style="shape=mxgraph.bpmn.shape;html=1;verticalLabelPosition=bottom;labelBackgroundColor=#ffffff;verticalAlign=top;perimeter=ellipsePerimeter;outline=end;symbol=terminate;rounded=0;shadow=0;comic=0;strokeWidth=1;fontFamily=Verdana;fontSize=12;align=center;" vertex="1" parent="yV7aqRX8QzyMvrt_NgPq-99">
          <mxGeometry x="105" y="460" width="40" height="40" as="geometry" />
        </mxCell>
        <mxCell id="yV7aqRX8QzyMvrt_NgPq-104" value="" style="endArrow=classic;html=1;rounded=0;exitX=1;exitY=0.5;exitDx=0;exitDy=0;entryX=0.5;entryY=0;entryDx=0;entryDy=0;edgeStyle=orthogonalEdgeStyle;" edge="1" parent="yV7aqRX8QzyMvrt_NgPq-98" source="yV7aqRX8QzyMvrt_NgPq-101" target="yV7aqRX8QzyMvrt_NgPq-108">
          <mxGeometry width="50" height="50" relative="1" as="geometry">
            <mxPoint x="300" y="-30" as="sourcePoint" />
            <mxPoint x="350" y="-80" as="targetPoint" />
          </mxGeometry>
        </mxCell>
        <mxCell id="yV7aqRX8QzyMvrt_NgPq-105" style="edgeStyle=orthogonalEdgeStyle;rounded=0;html=1;labelBackgroundColor=none;startArrow=none;startFill=0;startSize=5;endArrow=classicThin;endFill=1;endSize=5;jettySize=auto;orthogonalLoop=1;strokeWidth=1;fontFamily=Verdana;fontSize=12;exitX=0;exitY=0.5;exitDx=0;exitDy=0;entryX=0.5;entryY=0;entryDx=0;entryDy=0;" edge="1" parent="yV7aqRX8QzyMvrt_NgPq-98" source="yV7aqRX8QzyMvrt_NgPq-112" target="yV7aqRX8QzyMvrt_NgPq-103">
          <mxGeometry relative="1" as="geometry">
            <mxPoint x="363.54999999999995" y="440" as="sourcePoint" />
            <mxPoint x="363.8499999999999" y="470" as="targetPoint" />
          </mxGeometry>
        </mxCell>
        <mxCell id="yV7aqRX8QzyMvrt_NgPq-106" style="edgeStyle=orthogonalEdgeStyle;rounded=0;html=1;labelBackgroundColor=none;startArrow=none;startFill=0;startSize=5;endArrow=classicThin;endFill=1;endSize=5;jettySize=auto;orthogonalLoop=1;strokeWidth=1;fontFamily=Verdana;fontSize=12;exitX=0.5;exitY=1;exitDx=0;exitDy=0;jumpStyle=arc;entryX=0.5;entryY=0;entryDx=0;entryDy=0;" edge="1" parent="yV7aqRX8QzyMvrt_NgPq-98" source="yV7aqRX8QzyMvrt_NgPq-119" target="yV7aqRX8QzyMvrt_NgPq-103">
          <mxGeometry relative="1" as="geometry">
            <mxPoint x="110" y="670" as="targetPoint" />
            <Array as="points">
              <mxPoint x="576" y="440" />
              <mxPoint x="125" y="440" />
            </Array>
          </mxGeometry>
        </mxCell>
        <mxCell id="yV7aqRX8QzyMvrt_NgPq-107" value="Сервер" style="swimlane;html=1;startSize=20;" vertex="1" parent="yV7aqRX8QzyMvrt_NgPq-98">
          <mxGeometry x="250" y="20" width="470" height="530" as="geometry" />
        </mxCell>
        <mxCell id="yV7aqRX8QzyMvrt_NgPq-108" value="&lt;font style=&quot;font-size: 10px;&quot;&gt;Поиск пользователя в базе данных&lt;/font&gt;" style="rounded=1;whiteSpace=wrap;html=1;shadow=0;comic=0;labelBackgroundColor=none;strokeWidth=1;fontFamily=Verdana;fontSize=12;align=center;arcSize=50;" vertex="1" parent="yV7aqRX8QzyMvrt_NgPq-107">
          <mxGeometry x="163.75" y="110" width="142.5" height="50" as="geometry" />
        </mxCell>
        <mxCell id="yV7aqRX8QzyMvrt_NgPq-109" style="edgeStyle=orthogonalEdgeStyle;rounded=0;orthogonalLoop=1;jettySize=auto;html=1;exitX=1;exitY=0.5;exitDx=0;exitDy=0;entryX=0.5;entryY=0;entryDx=0;entryDy=0;" edge="1" parent="yV7aqRX8QzyMvrt_NgPq-107" source="yV7aqRX8QzyMvrt_NgPq-111" target="yV7aqRX8QzyMvrt_NgPq-116">
          <mxGeometry relative="1" as="geometry" />
        </mxCell>
        <mxCell id="yV7aqRX8QzyMvrt_NgPq-110" value="Да" style="edgeLabel;html=1;align=center;verticalAlign=middle;resizable=0;points=[];" vertex="1" connectable="0" parent="yV7aqRX8QzyMvrt_NgPq-109">
          <mxGeometry x="-0.6148" y="1" relative="1" as="geometry">
            <mxPoint as="offset" />
          </mxGeometry>
        </mxCell>
        <mxCell id="yV7aqRX8QzyMvrt_NgPq-111" value="&lt;font style=&quot;font-size: 10px;&quot;&gt;Пользователь найден?&lt;/font&gt;" style="rhombus;whiteSpace=wrap;html=1;" vertex="1" parent="yV7aqRX8QzyMvrt_NgPq-107">
          <mxGeometry x="195" y="190" width="80" height="80" as="geometry" />
        </mxCell>
        <mxCell id="yV7aqRX8QzyMvrt_NgPq-112" value="&lt;font style=&quot;font-size: 10px;&quot;&gt;Возвращает ответ 403&lt;/font&gt;" style="rounded=1;whiteSpace=wrap;html=1;shadow=0;comic=0;labelBackgroundColor=none;strokeWidth=1;fontFamily=Verdana;fontSize=12;align=center;arcSize=50;" vertex="1" parent="yV7aqRX8QzyMvrt_NgPq-107">
          <mxGeometry x="40" y="270" width="112.5" height="50" as="geometry" />
        </mxCell>
        <mxCell id="yV7aqRX8QzyMvrt_NgPq-113" value="" style="endArrow=classic;html=1;rounded=0;exitX=0.5;exitY=1;exitDx=0;exitDy=0;entryX=0.5;entryY=0;entryDx=0;entryDy=0;" edge="1" parent="yV7aqRX8QzyMvrt_NgPq-107" source="yV7aqRX8QzyMvrt_NgPq-108" target="yV7aqRX8QzyMvrt_NgPq-111">
          <mxGeometry width="50" height="50" relative="1" as="geometry">
            <mxPoint x="330" y="230" as="sourcePoint" />
            <mxPoint x="380" y="180" as="targetPoint" />
          </mxGeometry>
        </mxCell>
        <mxCell id="yV7aqRX8QzyMvrt_NgPq-114" value="" style="endArrow=classic;html=1;rounded=0;exitX=0;exitY=0.5;exitDx=0;exitDy=0;entryX=0.5;entryY=0;entryDx=0;entryDy=0;edgeStyle=orthogonalEdgeStyle;" edge="1" parent="yV7aqRX8QzyMvrt_NgPq-107" source="yV7aqRX8QzyMvrt_NgPq-111" target="yV7aqRX8QzyMvrt_NgPq-112">
          <mxGeometry width="50" height="50" relative="1" as="geometry">
            <mxPoint x="110" y="290" as="sourcePoint" />
            <mxPoint x="160" y="240" as="targetPoint" />
          </mxGeometry>
        </mxCell>
        <mxCell id="yV7aqRX8QzyMvrt_NgPq-115" value="Нет" style="edgeLabel;html=1;align=center;verticalAlign=middle;resizable=0;points=[];" vertex="1" connectable="0" parent="yV7aqRX8QzyMvrt_NgPq-114">
          <mxGeometry x="-0.4171" y="-1" relative="1" as="geometry">
            <mxPoint as="offset" />
          </mxGeometry>
        </mxCell>
        <mxCell id="yV7aqRX8QzyMvrt_NgPq-116" value="&lt;font style=&quot;font-size: 10px;&quot;&gt;Генерация JWT токена&lt;/font&gt;" style="rounded=1;whiteSpace=wrap;html=1;shadow=0;comic=0;labelBackgroundColor=none;strokeWidth=1;fontFamily=Verdana;fontSize=12;align=center;arcSize=50;" vertex="1" parent="yV7aqRX8QzyMvrt_NgPq-107">
          <mxGeometry x="250" y="270" width="152.5" height="50" as="geometry" />
        </mxCell>
        <mxCell id="yV7aqRX8QzyMvrt_NgPq-118" value="" style="endArrow=classic;html=1;rounded=0;exitX=0.5;exitY=1;exitDx=0;exitDy=0;entryX=0.5;entryY=0;entryDx=0;entryDy=0;" edge="1" parent="yV7aqRX8QzyMvrt_NgPq-107" source="yV7aqRX8QzyMvrt_NgPq-116" target="yV7aqRX8QzyMvrt_NgPq-119">
          <mxGeometry width="50" height="50" relative="1" as="geometry">
            <mxPoint x="190" y="440" as="sourcePoint" />
            <mxPoint x="326.25500000000034" y="360" as="targetPoint" />
          </mxGeometry>
        </mxCell>
        <mxCell id="yV7aqRX8QzyMvrt_NgPq-119" value="&lt;span style=&quot;font-size: 10px;&quot;&gt;Ответ 200&lt;/span&gt;" style="rounded=1;whiteSpace=wrap;html=1;shadow=0;comic=0;labelBackgroundColor=none;strokeWidth=1;fontFamily=Verdana;fontSize=12;align=center;arcSize=50;" vertex="1" parent="yV7aqRX8QzyMvrt_NgPq-107">
          <mxGeometry x="270" y="360" width="112.5" height="50" as="geometry" />
        </mxCell>
        <mxCell id="yV7aqRX8QzyMvrt_NgPq-123" value="" style="endArrow=classic;html=1;rounded=0;exitX=0;exitY=0.5;exitDx=0;exitDy=0;entryX=0.5;entryY=0;entryDx=0;entryDy=0;edgeStyle=orthogonalEdgeStyle;" edge="1" parent="yV7aqRX8QzyMvrt_NgPq-107" target="yV7aqRX8QzyMvrt_NgPq-122">
          <mxGeometry width="50" height="50" relative="1" as="geometry">
            <mxPoint x="268.13000000000034" y="420" as="sourcePoint" />
            <mxPoint x="416" y="540" as="targetPoint" />
          </mxGeometry>
        </mxCell>
        <mxCell id="yV7aqRX8QzyMvrt_NgPq-124" value="Нет" style="edgeLabel;html=1;align=center;verticalAlign=middle;resizable=0;points=[];" vertex="1" connectable="0" parent="yV7aqRX8QzyMvrt_NgPq-123">
          <mxGeometry x="-0.4755" y="-3" relative="1" as="geometry">
            <mxPoint as="offset" />
          </mxGeometry>
        </mxCell>
        <mxCell id="yV7aqRX8QzyMvrt_NgPq-153" value="&lt;font style=&quot;font-size: 90px;&quot;&gt;Авторизация/Регистрация&lt;/font&gt;" style="text;html=1;strokeColor=none;fillColor=none;align=center;verticalAlign=middle;whiteSpace=wrap;rounded=0;" vertex="1" parent="1">
          <mxGeometry x="130" y="-280" width="1720" height="30" as="geometry" />
        </mxCell>
        <mxCell id="yV7aqRX8QzyMvrt_NgPq-154" value="Получить все роли из таблицы AspNetUsers" style="swimlane;html=1;childLayout=stackLayout;startSize=20;rounded=0;shadow=0;comic=0;labelBackgroundColor=none;strokeWidth=1;fontFamily=Verdana;fontSize=12;align=center;" vertex="1" parent="1">
          <mxGeometry x="915" y="20" width="720" height="420" as="geometry" />
        </mxCell>
        <mxCell id="yV7aqRX8QzyMvrt_NgPq-155" value="Клиент" style="swimlane;html=1;startSize=20;" vertex="1" parent="yV7aqRX8QzyMvrt_NgPq-154">
          <mxGeometry y="20" width="250" height="400" as="geometry" />
        </mxCell>
        <mxCell id="yV7aqRX8QzyMvrt_NgPq-156" value="" style="ellipse;whiteSpace=wrap;html=1;rounded=0;shadow=0;comic=0;labelBackgroundColor=none;strokeWidth=1;fillColor=#000000;fontFamily=Verdana;fontSize=12;align=center;" vertex="1" parent="yV7aqRX8QzyMvrt_NgPq-155">
          <mxGeometry x="40" y="65" width="40" height="40" as="geometry" />
        </mxCell>
        <mxCell id="yV7aqRX8QzyMvrt_NgPq-157" value="&lt;font style=&quot;font-size: 10px;&quot;&gt;Отправка запроса&lt;/font&gt;" style="rounded=1;whiteSpace=wrap;html=1;shadow=0;comic=0;labelBackgroundColor=none;strokeWidth=1;fontFamily=Verdana;fontSize=12;align=center;arcSize=50;" vertex="1" parent="yV7aqRX8QzyMvrt_NgPq-155">
          <mxGeometry x="100" y="60" width="120" height="50" as="geometry" />
        </mxCell>
        <mxCell id="yV7aqRX8QzyMvrt_NgPq-158" style="edgeStyle=orthogonalEdgeStyle;rounded=0;html=1;labelBackgroundColor=none;startArrow=none;startFill=0;startSize=5;endArrow=classicThin;endFill=1;endSize=5;jettySize=auto;orthogonalLoop=1;strokeWidth=1;fontFamily=Verdana;fontSize=12;entryX=0;entryY=0.5;entryDx=0;entryDy=0;" edge="1" parent="yV7aqRX8QzyMvrt_NgPq-155" source="yV7aqRX8QzyMvrt_NgPq-156" target="yV7aqRX8QzyMvrt_NgPq-157">
          <mxGeometry relative="1" as="geometry" />
        </mxCell>
        <mxCell id="yV7aqRX8QzyMvrt_NgPq-159" value="" style="shape=mxgraph.bpmn.shape;html=1;verticalLabelPosition=bottom;labelBackgroundColor=#ffffff;verticalAlign=top;perimeter=ellipsePerimeter;outline=end;symbol=terminate;rounded=0;shadow=0;comic=0;strokeWidth=1;fontFamily=Verdana;fontSize=12;align=center;" vertex="1" parent="yV7aqRX8QzyMvrt_NgPq-155">
          <mxGeometry x="90" y="330" width="40" height="40" as="geometry" />
        </mxCell>
        <mxCell id="yV7aqRX8QzyMvrt_NgPq-160" value="" style="endArrow=classic;html=1;rounded=0;exitX=1;exitY=0.5;exitDx=0;exitDy=0;entryX=0.5;entryY=0;entryDx=0;entryDy=0;edgeStyle=orthogonalEdgeStyle;" edge="1" parent="yV7aqRX8QzyMvrt_NgPq-154" source="yV7aqRX8QzyMvrt_NgPq-157" target="yV7aqRX8QzyMvrt_NgPq-164">
          <mxGeometry width="50" height="50" relative="1" as="geometry">
            <mxPoint x="300" y="-30" as="sourcePoint" />
            <mxPoint x="350" y="-80" as="targetPoint" />
          </mxGeometry>
        </mxCell>
        <mxCell id="yV7aqRX8QzyMvrt_NgPq-163" value="Сервер" style="swimlane;html=1;startSize=20;" vertex="1" parent="yV7aqRX8QzyMvrt_NgPq-154">
          <mxGeometry x="250" y="20" width="470" height="400" as="geometry" />
        </mxCell>
        <mxCell id="yV7aqRX8QzyMvrt_NgPq-164" value="&lt;font style=&quot;font-size: 10px;&quot;&gt;Поиск ролей в таблице AspNetusers&lt;/font&gt;" style="rounded=1;whiteSpace=wrap;html=1;shadow=0;comic=0;labelBackgroundColor=none;strokeWidth=1;fontFamily=Verdana;fontSize=12;align=center;arcSize=50;" vertex="1" parent="yV7aqRX8QzyMvrt_NgPq-163">
          <mxGeometry x="163.75" y="110" width="142.5" height="50" as="geometry" />
        </mxCell>
        <mxCell id="yV7aqRX8QzyMvrt_NgPq-203" value="&lt;span style=&quot;font-size: 10px;&quot;&gt;Отправка ответа 200&lt;/span&gt;" style="rounded=1;whiteSpace=wrap;html=1;shadow=0;comic=0;labelBackgroundColor=none;strokeWidth=1;fontFamily=Verdana;fontSize=12;align=center;arcSize=50;" vertex="1" parent="yV7aqRX8QzyMvrt_NgPq-163">
          <mxGeometry x="166.25" y="190" width="137.5" height="50" as="geometry" />
        </mxCell>
        <mxCell id="yV7aqRX8QzyMvrt_NgPq-205" value="" style="endArrow=classic;html=1;rounded=0;exitX=0.5;exitY=1;exitDx=0;exitDy=0;entryX=0.5;entryY=0;entryDx=0;entryDy=0;edgeStyle=orthogonalEdgeStyle;" edge="1" parent="yV7aqRX8QzyMvrt_NgPq-163" source="yV7aqRX8QzyMvrt_NgPq-164" target="yV7aqRX8QzyMvrt_NgPq-203">
          <mxGeometry width="50" height="50" relative="1" as="geometry">
            <mxPoint x="181.24999999999955" y="1170" as="sourcePoint" />
            <mxPoint x="-130" y="1320" as="targetPoint" />
            <Array as="points">
              <mxPoint x="235" y="180" />
              <mxPoint x="235" y="180" />
            </Array>
          </mxGeometry>
        </mxCell>
        <mxCell id="yV7aqRX8QzyMvrt_NgPq-207" value="" style="endArrow=classic;html=1;rounded=0;exitX=0.5;exitY=1;exitDx=0;exitDy=0;edgeStyle=orthogonalEdgeStyle;entryX=0.5;entryY=0;entryDx=0;entryDy=0;" edge="1" parent="yV7aqRX8QzyMvrt_NgPq-154" source="yV7aqRX8QzyMvrt_NgPq-203" target="yV7aqRX8QzyMvrt_NgPq-159">
          <mxGeometry width="50" height="50" relative="1" as="geometry">
            <mxPoint x="350" y="1460" as="sourcePoint" />
            <mxPoint x="111" y="1410" as="targetPoint" />
            <Array as="points">
              <mxPoint x="485" y="300" />
              <mxPoint x="110" y="300" />
            </Array>
          </mxGeometry>
        </mxCell>
        <mxCell id="yV7aqRX8QzyMvrt_NgPq-208" value="Получить информацию о пользователе по его JWT токену" style="swimlane;html=1;childLayout=stackLayout;startSize=20;rounded=0;shadow=0;comic=0;labelBackgroundColor=none;strokeWidth=1;fontFamily=Verdana;fontSize=12;align=center;" vertex="1" parent="1">
          <mxGeometry x="1720" y="20" width="720" height="660" as="geometry" />
        </mxCell>
        <mxCell id="yV7aqRX8QzyMvrt_NgPq-209" value="Клиент" style="swimlane;html=1;startSize=20;" vertex="1" parent="yV7aqRX8QzyMvrt_NgPq-208">
          <mxGeometry y="20" width="250" height="640" as="geometry" />
        </mxCell>
        <mxCell id="yV7aqRX8QzyMvrt_NgPq-210" value="" style="ellipse;whiteSpace=wrap;html=1;rounded=0;shadow=0;comic=0;labelBackgroundColor=none;strokeWidth=1;fillColor=#000000;fontFamily=Verdana;fontSize=12;align=center;" vertex="1" parent="yV7aqRX8QzyMvrt_NgPq-209">
          <mxGeometry x="40" y="65" width="40" height="40" as="geometry" />
        </mxCell>
        <mxCell id="yV7aqRX8QzyMvrt_NgPq-211" value="&lt;font style=&quot;font-size: 10px;&quot;&gt;Отправка запроса&lt;/font&gt;" style="rounded=1;whiteSpace=wrap;html=1;shadow=0;comic=0;labelBackgroundColor=none;strokeWidth=1;fontFamily=Verdana;fontSize=12;align=center;arcSize=50;" vertex="1" parent="yV7aqRX8QzyMvrt_NgPq-209">
          <mxGeometry x="100" y="60" width="120" height="50" as="geometry" />
        </mxCell>
        <mxCell id="yV7aqRX8QzyMvrt_NgPq-212" style="edgeStyle=orthogonalEdgeStyle;rounded=0;html=1;labelBackgroundColor=none;startArrow=none;startFill=0;startSize=5;endArrow=classicThin;endFill=1;endSize=5;jettySize=auto;orthogonalLoop=1;strokeWidth=1;fontFamily=Verdana;fontSize=12;entryX=0;entryY=0.5;entryDx=0;entryDy=0;" edge="1" parent="yV7aqRX8QzyMvrt_NgPq-209" source="yV7aqRX8QzyMvrt_NgPq-210" target="yV7aqRX8QzyMvrt_NgPq-211">
          <mxGeometry relative="1" as="geometry" />
        </mxCell>
        <mxCell id="yV7aqRX8QzyMvrt_NgPq-213" value="" style="shape=mxgraph.bpmn.shape;html=1;verticalLabelPosition=bottom;labelBackgroundColor=#ffffff;verticalAlign=top;perimeter=ellipsePerimeter;outline=end;symbol=terminate;rounded=0;shadow=0;comic=0;strokeWidth=1;fontFamily=Verdana;fontSize=12;align=center;" vertex="1" parent="yV7aqRX8QzyMvrt_NgPq-209">
          <mxGeometry x="100" y="590" width="40" height="40" as="geometry" />
        </mxCell>
        <mxCell id="yV7aqRX8QzyMvrt_NgPq-214" value="" style="endArrow=classic;html=1;rounded=0;exitX=1;exitY=0.5;exitDx=0;exitDy=0;entryX=0.5;entryY=0;entryDx=0;entryDy=0;edgeStyle=orthogonalEdgeStyle;" edge="1" parent="yV7aqRX8QzyMvrt_NgPq-208" source="yV7aqRX8QzyMvrt_NgPq-211" target="yV7aqRX8QzyMvrt_NgPq-216">
          <mxGeometry width="50" height="50" relative="1" as="geometry">
            <mxPoint x="300" y="-30" as="sourcePoint" />
            <mxPoint x="350" y="-80" as="targetPoint" />
          </mxGeometry>
        </mxCell>
        <mxCell id="yV7aqRX8QzyMvrt_NgPq-215" value="Сервер" style="swimlane;html=1;startSize=20;" vertex="1" parent="yV7aqRX8QzyMvrt_NgPq-208">
          <mxGeometry x="250" y="20" width="470" height="640" as="geometry" />
        </mxCell>
        <mxCell id="yV7aqRX8QzyMvrt_NgPq-216" value="&lt;font style=&quot;font-size: 10px;&quot;&gt;Получаем Name из JWT токена&lt;/font&gt;" style="rounded=1;whiteSpace=wrap;html=1;shadow=0;comic=0;labelBackgroundColor=none;strokeWidth=1;fontFamily=Verdana;fontSize=12;align=center;arcSize=50;" vertex="1" parent="yV7aqRX8QzyMvrt_NgPq-215">
          <mxGeometry x="163.75" y="110" width="142.5" height="50" as="geometry" />
        </mxCell>
        <mxCell id="yV7aqRX8QzyMvrt_NgPq-217" value="&lt;span style=&quot;font-size: 10px;&quot;&gt;Ищем пользователя по его имени в таблице AspNetUsers&lt;/span&gt;" style="rounded=1;whiteSpace=wrap;html=1;shadow=0;comic=0;labelBackgroundColor=none;strokeWidth=1;fontFamily=Verdana;fontSize=12;align=center;arcSize=50;" vertex="1" parent="yV7aqRX8QzyMvrt_NgPq-215">
          <mxGeometry x="166.25" y="190" width="137.5" height="50" as="geometry" />
        </mxCell>
        <mxCell id="yV7aqRX8QzyMvrt_NgPq-218" value="" style="endArrow=classic;html=1;rounded=0;exitX=0.5;exitY=1;exitDx=0;exitDy=0;entryX=0.5;entryY=0;entryDx=0;entryDy=0;edgeStyle=orthogonalEdgeStyle;" edge="1" parent="yV7aqRX8QzyMvrt_NgPq-215" source="yV7aqRX8QzyMvrt_NgPq-216" target="yV7aqRX8QzyMvrt_NgPq-217">
          <mxGeometry width="50" height="50" relative="1" as="geometry">
            <mxPoint x="181.24999999999955" y="1170" as="sourcePoint" />
            <mxPoint x="-130" y="1320" as="targetPoint" />
            <Array as="points">
              <mxPoint x="235" y="180" />
              <mxPoint x="235" y="180" />
            </Array>
          </mxGeometry>
        </mxCell>
        <mxCell id="yV7aqRX8QzyMvrt_NgPq-222" value="&lt;p style=&quot;line-height: 110%;&quot;&gt;&lt;font style=&quot;font-size: 10px;&quot;&gt;Пользователь найден?&lt;/font&gt;&lt;/p&gt;" style="rhombus;whiteSpace=wrap;html=1;align=center;" vertex="1" parent="yV7aqRX8QzyMvrt_NgPq-215">
          <mxGeometry x="176.88" y="280" width="116.25" height="120" as="geometry" />
        </mxCell>
        <mxCell id="yV7aqRX8QzyMvrt_NgPq-223" value="" style="endArrow=classic;html=1;rounded=0;entryX=0.5;entryY=0;entryDx=0;entryDy=0;exitX=0.5;exitY=1;exitDx=0;exitDy=0;" edge="1" parent="yV7aqRX8QzyMvrt_NgPq-215" source="yV7aqRX8QzyMvrt_NgPq-217" target="yV7aqRX8QzyMvrt_NgPq-222">
          <mxGeometry width="50" height="50" relative="1" as="geometry">
            <mxPoint x="110" y="330" as="sourcePoint" />
            <mxPoint x="160" y="280" as="targetPoint" />
          </mxGeometry>
        </mxCell>
        <mxCell id="yV7aqRX8QzyMvrt_NgPq-226" value="&lt;font style=&quot;font-size: 10px;&quot;&gt;Возвращает ответ 404 Не найдено&lt;/font&gt;" style="rounded=1;whiteSpace=wrap;html=1;shadow=0;comic=0;labelBackgroundColor=none;strokeWidth=1;fontFamily=Verdana;fontSize=12;align=center;arcSize=50;" vertex="1" parent="yV7aqRX8QzyMvrt_NgPq-215">
          <mxGeometry x="20" y="420" width="112.5" height="50" as="geometry" />
        </mxCell>
        <mxCell id="yV7aqRX8QzyMvrt_NgPq-219" value="" style="endArrow=classic;html=1;rounded=0;exitX=0;exitY=0.5;exitDx=0;exitDy=0;edgeStyle=orthogonalEdgeStyle;entryX=0.5;entryY=0;entryDx=0;entryDy=0;" edge="1" parent="yV7aqRX8QzyMvrt_NgPq-215" source="yV7aqRX8QzyMvrt_NgPq-222" target="yV7aqRX8QzyMvrt_NgPq-226">
          <mxGeometry width="50" height="50" relative="1" as="geometry">
            <mxPoint x="100" y="1440" as="sourcePoint" />
            <mxPoint x="-139" y="1390" as="targetPoint" />
            <Array as="points">
              <mxPoint x="76" y="340" />
            </Array>
          </mxGeometry>
        </mxCell>
        <mxCell id="yV7aqRX8QzyMvrt_NgPq-228" value="Нет" style="edgeLabel;html=1;align=center;verticalAlign=middle;resizable=0;points=[];" vertex="1" connectable="0" parent="yV7aqRX8QzyMvrt_NgPq-219">
          <mxGeometry x="-0.7795" relative="1" as="geometry">
            <mxPoint as="offset" />
          </mxGeometry>
        </mxCell>
        <mxCell id="yV7aqRX8QzyMvrt_NgPq-227" value="&lt;span style=&quot;font-size: 10px;&quot;&gt;Отправка ответа 200&lt;/span&gt;" style="rounded=1;whiteSpace=wrap;html=1;shadow=0;comic=0;labelBackgroundColor=none;strokeWidth=1;fontFamily=Verdana;fontSize=12;align=center;arcSize=50;" vertex="1" parent="yV7aqRX8QzyMvrt_NgPq-215">
          <mxGeometry x="280" y="420" width="137.5" height="50" as="geometry" />
        </mxCell>
        <mxCell id="yV7aqRX8QzyMvrt_NgPq-234" value="" style="endArrow=classic;html=1;rounded=0;exitX=1;exitY=0.5;exitDx=0;exitDy=0;entryX=0.5;entryY=0;entryDx=0;entryDy=0;edgeStyle=orthogonalEdgeStyle;" edge="1" parent="yV7aqRX8QzyMvrt_NgPq-215" source="yV7aqRX8QzyMvrt_NgPq-222" target="yV7aqRX8QzyMvrt_NgPq-227">
          <mxGeometry width="50" height="50" relative="1" as="geometry">
            <mxPoint x="360" y="400" as="sourcePoint" />
            <mxPoint x="410" y="350" as="targetPoint" />
          </mxGeometry>
        </mxCell>
        <mxCell id="yV7aqRX8QzyMvrt_NgPq-236" value="Да" style="edgeLabel;html=1;align=center;verticalAlign=middle;resizable=0;points=[];" vertex="1" connectable="0" parent="yV7aqRX8QzyMvrt_NgPq-234">
          <mxGeometry x="-0.7332" y="3" relative="1" as="geometry">
            <mxPoint as="offset" />
          </mxGeometry>
        </mxCell>
        <mxCell id="yV7aqRX8QzyMvrt_NgPq-237" value="" style="endArrow=classic;html=1;rounded=0;exitX=0.5;exitY=1;exitDx=0;exitDy=0;entryX=0.5;entryY=0;entryDx=0;entryDy=0;edgeStyle=orthogonalEdgeStyle;" edge="1" parent="yV7aqRX8QzyMvrt_NgPq-208" source="yV7aqRX8QzyMvrt_NgPq-226" target="yV7aqRX8QzyMvrt_NgPq-213">
          <mxGeometry width="50" height="50" relative="1" as="geometry">
            <mxPoint x="450" y="690" as="sourcePoint" />
            <mxPoint x="500" y="640" as="targetPoint" />
          </mxGeometry>
        </mxCell>
        <mxCell id="yV7aqRX8QzyMvrt_NgPq-238" value="" style="endArrow=classic;html=1;rounded=0;exitX=0.5;exitY=1;exitDx=0;exitDy=0;entryX=0.5;entryY=0;entryDx=0;entryDy=0;edgeStyle=orthogonalEdgeStyle;" edge="1" parent="yV7aqRX8QzyMvrt_NgPq-208" source="yV7aqRX8QzyMvrt_NgPq-227" target="yV7aqRX8QzyMvrt_NgPq-213">
          <mxGeometry width="50" height="50" relative="1" as="geometry">
            <mxPoint x="336" y="500" as="sourcePoint" />
            <mxPoint x="130" y="620" as="targetPoint" />
          </mxGeometry>
        </mxCell>
        <mxCell id="yV7aqRX8QzyMvrt_NgPq-224" value="&lt;font style=&quot;font-size: 10px;&quot;&gt;Возвращает ответ 404 Не найдено&lt;/font&gt;" style="rounded=1;whiteSpace=wrap;html=1;shadow=0;comic=0;labelBackgroundColor=none;strokeWidth=1;fontFamily=Verdana;fontSize=12;align=center;arcSize=50;" vertex="1" parent="1">
          <mxGeometry x="340" y="320" width="112.5" height="50" as="geometry" />
        </mxCell>
        <mxCell id="yV7aqRX8QzyMvrt_NgPq-225" value="&lt;span style=&quot;font-size: 10px;&quot;&gt;Отправка ответа 200&lt;/span&gt;" style="rounded=1;whiteSpace=wrap;html=1;shadow=0;comic=0;labelBackgroundColor=none;strokeWidth=1;fontFamily=Verdana;fontSize=12;align=center;arcSize=50;" vertex="1" parent="1">
          <mxGeometry x="1341.25" y="240" width="137.5" height="50" as="geometry" />
        </mxCell>
        <mxCell id="yV7aqRX8QzyMvrt_NgPq-239" value="&lt;font style=&quot;font-size: 90px;&quot;&gt;Сотрудник&lt;/font&gt;" style="text;html=1;strokeColor=none;fillColor=none;align=center;verticalAlign=middle;whiteSpace=wrap;rounded=0;" vertex="1" parent="1">
          <mxGeometry x="120" y="1710" width="1720" height="30" as="geometry" />
        </mxCell>
        <mxCell id="yV7aqRX8QzyMvrt_NgPq-240" value="Создать сотрудника" style="swimlane;html=1;childLayout=stackLayout;startSize=20;rounded=0;shadow=0;comic=0;labelBackgroundColor=none;strokeWidth=1;fontFamily=Verdana;fontSize=12;align=center;" vertex="1" parent="1">
          <mxGeometry x="-850" y="1920" width="730" height="840" as="geometry" />
        </mxCell>
        <mxCell id="yV7aqRX8QzyMvrt_NgPq-241" value="Клиент" style="swimlane;html=1;startSize=20;" vertex="1" parent="yV7aqRX8QzyMvrt_NgPq-240">
          <mxGeometry y="20" width="250" height="820" as="geometry" />
        </mxCell>
        <mxCell id="yV7aqRX8QzyMvrt_NgPq-242" value="" style="ellipse;whiteSpace=wrap;html=1;rounded=0;shadow=0;comic=0;labelBackgroundColor=none;strokeWidth=1;fillColor=#000000;fontFamily=Verdana;fontSize=12;align=center;" vertex="1" parent="yV7aqRX8QzyMvrt_NgPq-241">
          <mxGeometry x="40" y="65" width="40" height="40" as="geometry" />
        </mxCell>
        <mxCell id="yV7aqRX8QzyMvrt_NgPq-243" value="&lt;font style=&quot;font-size: 10px;&quot;&gt;Отправка запроса на создание сотрудника&lt;/font&gt;" style="rounded=1;whiteSpace=wrap;html=1;shadow=0;comic=0;labelBackgroundColor=none;strokeWidth=1;fontFamily=Verdana;fontSize=12;align=center;arcSize=50;" vertex="1" parent="yV7aqRX8QzyMvrt_NgPq-241">
          <mxGeometry x="100" y="60" width="120" height="50" as="geometry" />
        </mxCell>
        <mxCell id="yV7aqRX8QzyMvrt_NgPq-244" style="edgeStyle=orthogonalEdgeStyle;rounded=0;html=1;labelBackgroundColor=none;startArrow=none;startFill=0;startSize=5;endArrow=classicThin;endFill=1;endSize=5;jettySize=auto;orthogonalLoop=1;strokeWidth=1;fontFamily=Verdana;fontSize=12;entryX=0;entryY=0.5;entryDx=0;entryDy=0;" edge="1" parent="yV7aqRX8QzyMvrt_NgPq-241" source="yV7aqRX8QzyMvrt_NgPq-242" target="yV7aqRX8QzyMvrt_NgPq-243">
          <mxGeometry relative="1" as="geometry" />
        </mxCell>
        <mxCell id="yV7aqRX8QzyMvrt_NgPq-245" value="" style="shape=mxgraph.bpmn.shape;html=1;verticalLabelPosition=bottom;labelBackgroundColor=#ffffff;verticalAlign=top;perimeter=ellipsePerimeter;outline=end;symbol=terminate;rounded=0;shadow=0;comic=0;strokeWidth=1;fontFamily=Verdana;fontSize=12;align=center;" vertex="1" parent="yV7aqRX8QzyMvrt_NgPq-241">
          <mxGeometry x="90" y="770" width="40" height="40" as="geometry" />
        </mxCell>
        <mxCell id="yV7aqRX8QzyMvrt_NgPq-246" value="" style="endArrow=classic;html=1;rounded=0;exitX=1;exitY=0.5;exitDx=0;exitDy=0;entryX=0.5;entryY=0;entryDx=0;entryDy=0;edgeStyle=orthogonalEdgeStyle;" edge="1" parent="yV7aqRX8QzyMvrt_NgPq-240" source="yV7aqRX8QzyMvrt_NgPq-243" target="yV7aqRX8QzyMvrt_NgPq-250">
          <mxGeometry width="50" height="50" relative="1" as="geometry">
            <mxPoint x="300" y="-30" as="sourcePoint" />
            <mxPoint x="350" y="-80" as="targetPoint" />
          </mxGeometry>
        </mxCell>
        <mxCell id="yV7aqRX8QzyMvrt_NgPq-249" value="Сервер" style="swimlane;html=1;startSize=20;" vertex="1" parent="yV7aqRX8QzyMvrt_NgPq-240">
          <mxGeometry x="250" y="20" width="480" height="820" as="geometry" />
        </mxCell>
        <mxCell id="yV7aqRX8QzyMvrt_NgPq-250" value="&lt;font style=&quot;font-size: 10px;&quot;&gt;Поиск компании по ID в таблице Departments&lt;/font&gt;" style="rounded=1;whiteSpace=wrap;html=1;shadow=0;comic=0;labelBackgroundColor=none;strokeWidth=1;fontFamily=Verdana;fontSize=12;align=center;arcSize=50;" vertex="1" parent="yV7aqRX8QzyMvrt_NgPq-249">
          <mxGeometry x="163.75" y="110" width="142.5" height="50" as="geometry" />
        </mxCell>
        <mxCell id="yV7aqRX8QzyMvrt_NgPq-251" style="edgeStyle=orthogonalEdgeStyle;rounded=0;orthogonalLoop=1;jettySize=auto;html=1;exitX=1;exitY=0.5;exitDx=0;exitDy=0;entryX=0.5;entryY=0;entryDx=0;entryDy=0;" edge="1" parent="yV7aqRX8QzyMvrt_NgPq-249" source="yV7aqRX8QzyMvrt_NgPq-253" target="yV7aqRX8QzyMvrt_NgPq-267">
          <mxGeometry relative="1" as="geometry" />
        </mxCell>
        <mxCell id="yV7aqRX8QzyMvrt_NgPq-252" value="Да" style="edgeLabel;html=1;align=center;verticalAlign=middle;resizable=0;points=[];" vertex="1" connectable="0" parent="yV7aqRX8QzyMvrt_NgPq-251">
          <mxGeometry x="-0.6148" y="1" relative="1" as="geometry">
            <mxPoint as="offset" />
          </mxGeometry>
        </mxCell>
        <mxCell id="yV7aqRX8QzyMvrt_NgPq-253" value="&lt;font style=&quot;font-size: 10px;&quot;&gt;Компания найдена?&lt;/font&gt;" style="rhombus;whiteSpace=wrap;html=1;" vertex="1" parent="yV7aqRX8QzyMvrt_NgPq-249">
          <mxGeometry x="195" y="190" width="80" height="80" as="geometry" />
        </mxCell>
        <mxCell id="yV7aqRX8QzyMvrt_NgPq-255" value="" style="endArrow=classic;html=1;rounded=0;exitX=0.5;exitY=1;exitDx=0;exitDy=0;entryX=0.5;entryY=0;entryDx=0;entryDy=0;" edge="1" parent="yV7aqRX8QzyMvrt_NgPq-249" source="yV7aqRX8QzyMvrt_NgPq-250" target="yV7aqRX8QzyMvrt_NgPq-253">
          <mxGeometry width="50" height="50" relative="1" as="geometry">
            <mxPoint x="330" y="230" as="sourcePoint" />
            <mxPoint x="380" y="180" as="targetPoint" />
          </mxGeometry>
        </mxCell>
        <mxCell id="yV7aqRX8QzyMvrt_NgPq-256" value="" style="endArrow=classic;html=1;rounded=0;exitX=0;exitY=0.5;exitDx=0;exitDy=0;entryX=0.5;entryY=0;entryDx=0;entryDy=0;edgeStyle=orthogonalEdgeStyle;" edge="1" parent="yV7aqRX8QzyMvrt_NgPq-249" source="yV7aqRX8QzyMvrt_NgPq-253" target="yV7aqRX8QzyMvrt_NgPq-264">
          <mxGeometry width="50" height="50" relative="1" as="geometry">
            <mxPoint x="110" y="290" as="sourcePoint" />
            <mxPoint x="96.25" y="270.00000000000045" as="targetPoint" />
          </mxGeometry>
        </mxCell>
        <mxCell id="yV7aqRX8QzyMvrt_NgPq-257" value="Нет" style="edgeLabel;html=1;align=center;verticalAlign=middle;resizable=0;points=[];" vertex="1" connectable="0" parent="yV7aqRX8QzyMvrt_NgPq-256">
          <mxGeometry x="-0.4171" y="-1" relative="1" as="geometry">
            <mxPoint as="offset" />
          </mxGeometry>
        </mxCell>
        <mxCell id="yV7aqRX8QzyMvrt_NgPq-258" value="&lt;font style=&quot;font-size: 10px;&quot;&gt;Создание сотрудника в таблице Employes&lt;/font&gt;" style="rounded=1;whiteSpace=wrap;html=1;shadow=0;comic=0;labelBackgroundColor=none;strokeWidth=1;fontFamily=Verdana;fontSize=12;align=center;arcSize=50;" vertex="1" parent="yV7aqRX8QzyMvrt_NgPq-249">
          <mxGeometry x="290" y="500" width="152.5" height="50" as="geometry" />
        </mxCell>
        <mxCell id="yV7aqRX8QzyMvrt_NgPq-259" value="" style="endArrow=classic;html=1;rounded=0;exitX=0.5;exitY=1;exitDx=0;exitDy=0;entryX=0.5;entryY=0;entryDx=0;entryDy=0;" edge="1" parent="yV7aqRX8QzyMvrt_NgPq-249" source="yV7aqRX8QzyMvrt_NgPq-258" target="yV7aqRX8QzyMvrt_NgPq-260">
          <mxGeometry width="50" height="50" relative="1" as="geometry">
            <mxPoint x="190" y="440" as="sourcePoint" />
            <mxPoint x="326.25500000000034" y="360" as="targetPoint" />
          </mxGeometry>
        </mxCell>
        <mxCell id="yV7aqRX8QzyMvrt_NgPq-260" value="&lt;font style=&quot;font-size: 10px;&quot;&gt;Ответ 200&lt;/font&gt;" style="rounded=1;whiteSpace=wrap;html=1;shadow=0;comic=0;labelBackgroundColor=none;strokeWidth=1;fontFamily=Verdana;fontSize=12;align=center;arcSize=50;" vertex="1" parent="yV7aqRX8QzyMvrt_NgPq-249">
          <mxGeometry x="290" y="580" width="152.5" height="50" as="geometry" />
        </mxCell>
        <mxCell id="yV7aqRX8QzyMvrt_NgPq-263" value="&lt;font style=&quot;font-size: 10px;&quot;&gt;Группа риска найдена?&lt;/font&gt;" style="rhombus;whiteSpace=wrap;html=1;" vertex="1" parent="yV7aqRX8QzyMvrt_NgPq-249">
          <mxGeometry x="195" y="420" width="80" height="80" as="geometry" />
        </mxCell>
        <mxCell id="yV7aqRX8QzyMvrt_NgPq-264" value="&lt;font style=&quot;font-size: 10px;&quot;&gt;Возвращает ответ 404&lt;/font&gt;" style="rounded=1;whiteSpace=wrap;html=1;shadow=0;comic=0;labelBackgroundColor=none;strokeWidth=1;fontFamily=Verdana;fontSize=12;align=center;arcSize=50;" vertex="1" parent="yV7aqRX8QzyMvrt_NgPq-249">
          <mxGeometry x="51.25" y="500" width="112.5" height="50" as="geometry" />
        </mxCell>
        <mxCell id="yV7aqRX8QzyMvrt_NgPq-265" value="" style="endArrow=classic;html=1;rounded=0;exitX=0;exitY=0.5;exitDx=0;exitDy=0;entryX=0.5;entryY=0;entryDx=0;entryDy=0;edgeStyle=orthogonalEdgeStyle;" edge="1" parent="yV7aqRX8QzyMvrt_NgPq-249" source="yV7aqRX8QzyMvrt_NgPq-263" target="yV7aqRX8QzyMvrt_NgPq-264">
          <mxGeometry width="50" height="50" relative="1" as="geometry">
            <mxPoint x="70" y="470" as="sourcePoint" />
            <mxPoint x="120" y="420" as="targetPoint" />
          </mxGeometry>
        </mxCell>
        <mxCell id="yV7aqRX8QzyMvrt_NgPq-266" value="Нет" style="edgeLabel;html=1;align=center;verticalAlign=middle;resizable=0;points=[];" vertex="1" connectable="0" parent="yV7aqRX8QzyMvrt_NgPq-265">
          <mxGeometry x="-0.7767" y="2" relative="1" as="geometry">
            <mxPoint as="offset" />
          </mxGeometry>
        </mxCell>
        <mxCell id="yV7aqRX8QzyMvrt_NgPq-267" value="&lt;font style=&quot;font-size: 10px;&quot;&gt;Поиск группы риска по ID в таблице RiskGroups&lt;/font&gt;" style="rounded=1;whiteSpace=wrap;html=1;shadow=0;comic=0;labelBackgroundColor=none;strokeWidth=1;fontFamily=Verdana;fontSize=12;align=center;arcSize=50;" vertex="1" parent="yV7aqRX8QzyMvrt_NgPq-249">
          <mxGeometry x="280" y="320" width="142.5" height="50" as="geometry" />
        </mxCell>
        <mxCell id="yV7aqRX8QzyMvrt_NgPq-269" value="" style="endArrow=classic;html=1;rounded=0;exitX=0.5;exitY=1;exitDx=0;exitDy=0;entryX=0.5;entryY=0;entryDx=0;entryDy=0;edgeStyle=orthogonalEdgeStyle;" edge="1" parent="yV7aqRX8QzyMvrt_NgPq-249" source="yV7aqRX8QzyMvrt_NgPq-267" target="yV7aqRX8QzyMvrt_NgPq-263">
          <mxGeometry width="50" height="50" relative="1" as="geometry">
            <mxPoint x="290" y="450" as="sourcePoint" />
            <mxPoint x="340" y="400" as="targetPoint" />
          </mxGeometry>
        </mxCell>
        <mxCell id="yV7aqRX8QzyMvrt_NgPq-270" value="" style="endArrow=classic;html=1;rounded=0;exitX=1;exitY=0.5;exitDx=0;exitDy=0;entryX=0.5;entryY=0;entryDx=0;entryDy=0;edgeStyle=orthogonalEdgeStyle;" edge="1" parent="yV7aqRX8QzyMvrt_NgPq-249" source="yV7aqRX8QzyMvrt_NgPq-263" target="yV7aqRX8QzyMvrt_NgPq-258">
          <mxGeometry width="50" height="50" relative="1" as="geometry">
            <mxPoint x="300" y="440" as="sourcePoint" />
            <mxPoint x="350" y="390" as="targetPoint" />
          </mxGeometry>
        </mxCell>
        <mxCell id="yV7aqRX8QzyMvrt_NgPq-272" value="Да" style="edgeLabel;html=1;align=center;verticalAlign=middle;resizable=0;points=[];" vertex="1" connectable="0" parent="yV7aqRX8QzyMvrt_NgPq-270">
          <mxGeometry x="-0.7155" y="-1" relative="1" as="geometry">
            <mxPoint as="offset" />
          </mxGeometry>
        </mxCell>
        <mxCell id="yV7aqRX8QzyMvrt_NgPq-248" style="edgeStyle=orthogonalEdgeStyle;rounded=0;html=1;labelBackgroundColor=none;startArrow=none;startFill=0;startSize=5;endArrow=classicThin;endFill=1;endSize=5;jettySize=auto;orthogonalLoop=1;strokeWidth=1;fontFamily=Verdana;fontSize=12;exitX=0.5;exitY=1;exitDx=0;exitDy=0;jumpStyle=arc;entryX=0.5;entryY=0;entryDx=0;entryDy=0;" edge="1" parent="yV7aqRX8QzyMvrt_NgPq-240" source="yV7aqRX8QzyMvrt_NgPq-260" target="yV7aqRX8QzyMvrt_NgPq-245">
          <mxGeometry relative="1" as="geometry">
            <mxPoint x="616.25" y="770" as="targetPoint" />
            <Array as="points">
              <mxPoint x="616" y="690" />
              <mxPoint x="110" y="690" />
            </Array>
          </mxGeometry>
        </mxCell>
        <mxCell id="yV7aqRX8QzyMvrt_NgPq-301" style="edgeStyle=orthogonalEdgeStyle;rounded=0;html=1;labelBackgroundColor=none;startArrow=none;startFill=0;startSize=5;endArrow=classicThin;endFill=1;endSize=5;jettySize=auto;orthogonalLoop=1;strokeWidth=1;fontFamily=Verdana;fontSize=12;exitX=0.5;exitY=1;exitDx=0;exitDy=0;jumpStyle=arc;entryX=0.5;entryY=0;entryDx=0;entryDy=0;" edge="1" parent="yV7aqRX8QzyMvrt_NgPq-240" source="yV7aqRX8QzyMvrt_NgPq-264" target="yV7aqRX8QzyMvrt_NgPq-245">
          <mxGeometry relative="1" as="geometry">
            <mxPoint x="120" y="800" as="targetPoint" />
            <Array as="points">
              <mxPoint x="358" y="690" />
              <mxPoint x="110" y="690" />
            </Array>
            <mxPoint x="626" y="660" as="sourcePoint" />
          </mxGeometry>
        </mxCell>
        <mxCell id="yV7aqRX8QzyMvrt_NgPq-273" value="Получить всех сотрудников" style="swimlane;html=1;childLayout=stackLayout;startSize=20;rounded=0;shadow=0;comic=0;labelBackgroundColor=none;strokeWidth=1;fontFamily=Verdana;fontSize=12;align=center;" vertex="1" parent="1">
          <mxGeometry x="-10" y="1920" width="730" height="440" as="geometry" />
        </mxCell>
        <mxCell id="yV7aqRX8QzyMvrt_NgPq-274" value="Клиент" style="swimlane;html=1;startSize=20;" vertex="1" parent="yV7aqRX8QzyMvrt_NgPq-273">
          <mxGeometry y="20" width="250" height="420" as="geometry" />
        </mxCell>
        <mxCell id="yV7aqRX8QzyMvrt_NgPq-275" value="" style="ellipse;whiteSpace=wrap;html=1;rounded=0;shadow=0;comic=0;labelBackgroundColor=none;strokeWidth=1;fillColor=#000000;fontFamily=Verdana;fontSize=12;align=center;" vertex="1" parent="yV7aqRX8QzyMvrt_NgPq-274">
          <mxGeometry x="40" y="65" width="40" height="40" as="geometry" />
        </mxCell>
        <mxCell id="yV7aqRX8QzyMvrt_NgPq-276" value="&lt;font style=&quot;font-size: 10px;&quot;&gt;Отправка запроса на получение сотрудников&lt;/font&gt;" style="rounded=1;whiteSpace=wrap;html=1;shadow=0;comic=0;labelBackgroundColor=none;strokeWidth=1;fontFamily=Verdana;fontSize=12;align=center;arcSize=50;" vertex="1" parent="yV7aqRX8QzyMvrt_NgPq-274">
          <mxGeometry x="100" y="60" width="120" height="50" as="geometry" />
        </mxCell>
        <mxCell id="yV7aqRX8QzyMvrt_NgPq-277" style="edgeStyle=orthogonalEdgeStyle;rounded=0;html=1;labelBackgroundColor=none;startArrow=none;startFill=0;startSize=5;endArrow=classicThin;endFill=1;endSize=5;jettySize=auto;orthogonalLoop=1;strokeWidth=1;fontFamily=Verdana;fontSize=12;entryX=0;entryY=0.5;entryDx=0;entryDy=0;" edge="1" parent="yV7aqRX8QzyMvrt_NgPq-274" source="yV7aqRX8QzyMvrt_NgPq-275" target="yV7aqRX8QzyMvrt_NgPq-276">
          <mxGeometry relative="1" as="geometry" />
        </mxCell>
        <mxCell id="yV7aqRX8QzyMvrt_NgPq-278" value="" style="shape=mxgraph.bpmn.shape;html=1;verticalLabelPosition=bottom;labelBackgroundColor=#ffffff;verticalAlign=top;perimeter=ellipsePerimeter;outline=end;symbol=terminate;rounded=0;shadow=0;comic=0;strokeWidth=1;fontFamily=Verdana;fontSize=12;align=center;" vertex="1" parent="yV7aqRX8QzyMvrt_NgPq-274">
          <mxGeometry x="105" y="350" width="40" height="40" as="geometry" />
        </mxCell>
        <mxCell id="yV7aqRX8QzyMvrt_NgPq-279" value="" style="endArrow=classic;html=1;rounded=0;exitX=1;exitY=0.5;exitDx=0;exitDy=0;entryX=0.5;entryY=0;entryDx=0;entryDy=0;edgeStyle=orthogonalEdgeStyle;" edge="1" parent="yV7aqRX8QzyMvrt_NgPq-273" source="yV7aqRX8QzyMvrt_NgPq-276" target="yV7aqRX8QzyMvrt_NgPq-282">
          <mxGeometry width="50" height="50" relative="1" as="geometry">
            <mxPoint x="300" y="-30" as="sourcePoint" />
            <mxPoint x="350" y="-80" as="targetPoint" />
          </mxGeometry>
        </mxCell>
        <mxCell id="yV7aqRX8QzyMvrt_NgPq-280" style="edgeStyle=orthogonalEdgeStyle;rounded=0;html=1;labelBackgroundColor=none;startArrow=none;startFill=0;startSize=5;endArrow=classicThin;endFill=1;endSize=5;jettySize=auto;orthogonalLoop=1;strokeWidth=1;fontFamily=Verdana;fontSize=12;exitX=0.5;exitY=1;exitDx=0;exitDy=0;jumpStyle=arc;entryX=0.5;entryY=0;entryDx=0;entryDy=0;" edge="1" parent="yV7aqRX8QzyMvrt_NgPq-273" source="yV7aqRX8QzyMvrt_NgPq-291" target="yV7aqRX8QzyMvrt_NgPq-278">
          <mxGeometry relative="1" as="geometry">
            <mxPoint x="110" y="670" as="targetPoint" />
            <Array as="points">
              <mxPoint x="490" y="290" />
              <mxPoint x="490" y="320" />
              <mxPoint x="125" y="320" />
            </Array>
          </mxGeometry>
        </mxCell>
        <mxCell id="yV7aqRX8QzyMvrt_NgPq-281" value="Сервер" style="swimlane;html=1;startSize=20;" vertex="1" parent="yV7aqRX8QzyMvrt_NgPq-273">
          <mxGeometry x="250" y="20" width="480" height="420" as="geometry" />
        </mxCell>
        <mxCell id="yV7aqRX8QzyMvrt_NgPq-282" value="&lt;font style=&quot;font-size: 10px;&quot;&gt;Поиск в таблицах Employes и Humans&lt;/font&gt;" style="rounded=1;whiteSpace=wrap;html=1;shadow=0;comic=0;labelBackgroundColor=none;strokeWidth=1;fontFamily=Verdana;fontSize=12;align=center;arcSize=50;" vertex="1" parent="yV7aqRX8QzyMvrt_NgPq-281">
          <mxGeometry x="163.75" y="110" width="142.5" height="50" as="geometry" />
        </mxCell>
        <mxCell id="yV7aqRX8QzyMvrt_NgPq-286" value="" style="endArrow=classic;html=1;rounded=0;exitX=0.5;exitY=1;exitDx=0;exitDy=0;entryX=0.5;entryY=0;entryDx=0;entryDy=0;" edge="1" parent="yV7aqRX8QzyMvrt_NgPq-281" source="yV7aqRX8QzyMvrt_NgPq-282" target="yV7aqRX8QzyMvrt_NgPq-291">
          <mxGeometry width="50" height="50" relative="1" as="geometry">
            <mxPoint x="330" y="230" as="sourcePoint" />
            <mxPoint x="235" y="190.00000000000045" as="targetPoint" />
          </mxGeometry>
        </mxCell>
        <mxCell id="yV7aqRX8QzyMvrt_NgPq-291" value="&lt;font style=&quot;font-size: 10px;&quot;&gt;Ответ 200&lt;/font&gt;" style="rounded=1;whiteSpace=wrap;html=1;shadow=0;comic=0;labelBackgroundColor=none;strokeWidth=1;fontFamily=Verdana;fontSize=12;align=center;arcSize=50;" vertex="1" parent="yV7aqRX8QzyMvrt_NgPq-281">
          <mxGeometry x="158.75" y="220" width="152.5" height="50" as="geometry" />
        </mxCell>
      </root>
    </mxGraphModel>
  </diagram>
</mxfile>
